<?xml version="1.0" encoding="UTF-8"?>
<svg width="14px" height="14px" viewBox="0 0 14 14" version="1.1" xmlns="http://www.w3.org/2000/svg" xmlns:xlink="http://www.w3.org/1999/xlink">
    <!-- Generator: Sketch 50.2 (55047) - http://www.bohemiancoding.com/sketch -->
    <title>Icon / Social Network / Facebook</title>
    <desc>Created with Sketch.</desc>
    <defs></defs>
    <g id="Symbols" stroke="none" stroke-width="1" fill="none" fill-rule="evenodd">
        <g id="Components-/-Top-Bar-/-Default" transform="translate(-1351.000000, -52.000000)">
            <g id="Icon-/-Social-Network-/-Facebook" transform="translate(1351.000000, 52.000000)">
                <g id="icons8-facebook">
                    <path d="M14.4000002,12.4000002 C14.4000002,13.5046878 13.5046878,14.4000002 12.4000002,14.4000002 L2.00000003,14.4000002 C0.895312413,14.4000002 0,13.5046878 0,12.4000002 L0,2.00000003 C0,0.895312413 0.895312413,0 2.00000003,0 L12.4000002,0 C13.5046878,0 14.4000002,0.895312413 14.4000002,2.00000003 L14.4000002,12.4000002 Z" id="Shape" fill="#282828" fill-rule="nonzero"></path>
                    <path d="M11.3468754,7.60000011 L10.0000001,7.60000011 L10.0000001,14.4000002 L8.00000012,14.4000002 L8.00000012,7.60000011 L6.8000001,7.60000011 L6.8000001,6.00000009 L8.00000012,6.00000009 L8.00000012,5.03593768 C8.00156252,3.63281245 8.58437533,2.80000004 10.2375002,2.80000004 L11.6000002,2.80000004 L11.6000002,4.40000007 L10.6859378,4.40000007 C10.0421877,4.40000007 10.0000001,4.64062527 10.0000001,5.08906248 L10.0000001,6.00000009 L11.6000002,6.00000009 L11.3468754,7.60000011 Z" id="Shape" fill="#FFFFFF" fill-rule="nonzero"></path>
                </g>
            </g>
        </g>
    </g>
</svg>