<?xml version="1.0" encoding="UTF-8"?>
<svg width="14px" height="12px" viewBox="0 0 14 12" version="1.1" xmlns="http://www.w3.org/2000/svg" xmlns:xlink="http://www.w3.org/1999/xlink">
    <!-- Generator: Sketch 50.2 (55047) - http://www.bohemiancoding.com/sketch -->
    <title>Icon / Social Network / Facebook Copy</title>
    <desc>Created with Sketch.</desc>
    <defs></defs>
    <g id="Symbols" stroke="none" stroke-width="1" fill="none" fill-rule="evenodd">
        <g id="Components-/-Top-Bar-/-Default" transform="translate(-1385.000000, -53.000000)" fill="#282828">
            <g id="Icon-/-Social-Network-/-Twiter" transform="translate(1385.000000, 52.000000)">
                <g id="icons8-twitter" transform="translate(0.000000, 1.600000)">
                    <path d="M14.4000002,1.33479751 C13.8846285,1.56283786 13.3312501,1.71486489 12.7474663,1.78631769 C13.3403719,1.43361498 13.7979732,0.871114781 14.0123312,0.20675676 C13.4559125,0.53361497 12.8402031,0.772297309 12.1864867,0.89847984 C11.6635137,0.343581281 10.9170609,0 10.0900338,0 C8.50287165,0 7.215203,1.27550687 7.215203,2.84898672 C7.215203,3.07094599 7.2410475,3.28834474 7.28969615,3.49814185 C4.90135142,3.37956096 2.78209483,2.24391895 1.36520292,0.519932635 C1.11587859,0.941047409 0.976013723,1.43361498 0.976013723,1.95506779 C0.976013723,2.94324329 1.48226363,3.81435807 2.25456094,4.32668945 C1.78327696,4.31300672 1.33935803,4.1807435 0.951689398,3.97094601 C0.951689398,3.98006782 0.951689398,3.99222998 0.951689398,4.00439215 C0.951689398,5.38631775 1.94290563,6.53716226 3.25641916,6.80016892 C3.01621626,6.86554064 2.76233102,6.90202713 2.50084453,6.90202713 C2.31537175,6.90202713 2.13445949,6.88074354 1.95962831,6.84881757 C2.32449318,7.9783785 3.38564204,8.80388536 4.64442584,8.82820969 C3.65929069,9.59138518 2.42027031,10.0489868 1.07331102,10.0489868 C0.840709375,10.0489868 0.612669025,10.0353041 0.387669022,10.0079394 C1.66165533,10.8136825 3.1728042,11.2864867 4.7949327,11.2864867 C10.0824326,11.2864867 12.975507,6.9445947 12.975507,3.17736511 C12.975507,3.05422292 12.9709461,2.93108112 12.9648651,2.81097967 C13.5288854,2.41114888 14.0153719,1.90945949 14.4000002,1.33479751" id="Shape" fill-rule="nonzero"></path>
                </g>
            </g>
        </g>
    </g>
</svg>